<svg xmlns:xlink="http://www.w3.org/1999/xlink" xmlns="http://www.w3.org/2000/svg" class="MuiSvgIcon-root MuiSvgIcon-fontSizeInherit appshell-fp-1cw4hi4" focusable="false" aria-hidden="true" viewBox="0 0 24 24" data-testid="MiniBagIcon" data-di-res-id="d9bbfa67-2dca7e27" data-di-rand="1702151524665" width="30"  height="30" ><path d="M15 9V7.954a2.43 2.43 0 0 0-.256-1.084l-.126-.252a2.927 2.927 0 0 0-5.236 0l-.126.252A2.423 2.423 0 0 0 9 7.954V9H7.383a1.5 1.5 0 0 0-1.489 1.314l-.75 6A1.5 1.5 0 0 0 6.633 18h10.734a1.5 1.5 0 0 0 1.489-1.686l-.75-6A1.5 1.5 0 0 0 16.617 9zm-3-3c.73 0 1.397.412 1.724 1.065l.126.253c.099.197.15.415.15.636V9h-4V7.954c0-.221.051-.439.15-.636l.126-.253A1.927 1.927 0 0 1 12 6zm-4.617 4h9.234a.5.5 0 0 1 .496.438l.75 6a.5.5 0 0 1-.496.562H6.633a.5.5 0 0 1-.496-.562l.75-6A.5.5 0 0 1 7.383 10z" fill="#777777"></path></svg>