<svg xmlns:xlink="http://www.w3.org/1999/xlink" xmlns="http://www.w3.org/2000/svg" class="MuiSvgIcon-root MuiSvgIcon-fontSizeMedium web-messenger-yc4ipy" focusable="false" aria-hidden="true" viewBox="0 0 24 24" data-testid="BubbleHelpFilledIcon" data-di-rand="1704473028214" width="56"  height="32" ><path d="M17.805 15.881c-.093.18-.182.354-.266.523-.192.428-.14.768.071 1.052.237.319.723.63 1.513.83a.5.5 0 0 1 .036.96c-.706.237-1.412.33-2.153.185-.653-.127-1.301-.432-1.978-.928a7.182 7.182 0 0 1-3.24.769c-4.032 0-7.288-3.314-7.288-7.386C4.5 7.813 7.756 4.5 11.788 4.5s7.288 3.313 7.288 7.386c0 1.53-.69 2.868-1.271 3.995z" fill="#FFFFFF"></path></svg>