<?xml version="1.0" encoding="UTF-8"?>
<svg width="83.4082813px" height="82.5000218px" viewBox="0 0 83.4082813 82.5000218" version="1.1" xmlns="http://www.w3.org/2000/svg" xmlns:xlink="http://www.w3.org/1999/xlink">
    <title>play-btn</title>
    <g id="Page-1" stroke="none" stroke-width="1" fill="none" fill-rule="evenodd">
        <g id="play-btn" fill-rule="nonzero">
            <g fill="#333333" id="Shape">
                <path d="M41.7041407,0.00251089969 C26.8596134,-0.160929396 13.0722296,7.66485853 5.60238413,20.4940483 C-1.86746138,33.3232381 -1.86746138,49.1767837 5.60238413,62.0059735 C13.0722296,74.8351633 26.8596134,82.6609512 41.7041407,82.4975109 C56.5486679,82.6609512 70.3360517,74.8351633 77.8058972,62.0059735 C85.2757427,49.1767837 85.2757427,33.3232381 77.8058972,20.4940483 C70.3360517,7.66485853 56.5486679,-0.160929396 41.7041407,0.00251089969 L41.7041407,0.00251089969 Z M54.6191407,43.7525109 L36.0591407,55.8925109 C35.1389087,56.4947192 33.9626506,56.544142 32.9951453,56.0212508 C32.02764,55.4983596 31.4245363,54.4872752 31.4241368,53.3875109 L31.4241368,29.1075109 C31.4223678,28.0047169 32.0277681,26.9904773 32.9992844,26.4686402 C33.9708007,25.9468032 35.1506879,26.0020993 36.0691407,26.6125109 L36.0591407,26.6075109 L54.6241407,38.7425109 C55.4653653,39.2962738 55.972596,40.235194 55.9746142,41.2423227 C55.9766205,42.2494513 55.4731458,43.1903909 54.6341407,43.7475109 L54.6241407,43.7525109 L54.6191407,43.7525109 Z"></path>
            </g>
            <g id="paly-btn-center" transform="translate(31.000000, 26.000000)" fill="#FFFFFF">
                <path d="M24.6427024,13.1520268 L6.5389777,0.768158955 C5.35442991,-0.0405394237 3.73509145,-0.226540051 2.31089526,0.285635589 C0.886699071,0.797811229 0,1.88146706 0,3.11607991 L0,27.8838156 C0.0112488778,29.6022053 1.77864434,30.9926286 3.96104566,31 C4.88882731,31 5.79949122,30.7385209 6.5389777,30.2317365 L24.6427024,17.8478687 C25.5050041,17.2565674 26,16.4002989 26,15.4999477 C26,14.5995966 25.5050041,13.7433281 24.6427024,13.1520268 L24.6427024,13.1520268 Z" id="Path"></path>
            </g>
        </g>
    </g>
</svg>