<svg xmlns:xlink="http://www.w3.org/1999/xlink" xmlns="http://www.w3.org/2000/svg" class="MuiSvgIcon-root MuiSvgIcon-fontSizeInherit appshell-fp-1cw4hi4" focusable="false" aria-hidden="true" viewBox="0 0 24 24" data-testid="DiscountTagFilledIcon" data-di-res-id="5cfbd79c-42f19e31" data-di-rand="1702150864692" width="24"  height="24" ><path d="M11.562 5.732A2.5 2.5 0 0 1 13.329 5h4.172a1.5 1.5 0 0 1 1.5 1.5v4.172a2.5 2.5 0 0 1-.732 1.767l-6.5 6.5a2.5 2.5 0 0 1-3.536 0l-3.171-3.171a2.5 2.5 0 0 1 0-3.536zM16 9a1 1 0 1 0 0-2 1 1 0 0 0 0 2z" fill="#FFFFFF"></path></svg>