<svg xmlns:xlink="http://www.w3.org/1999/xlink" xmlns="http://www.w3.org/2000/svg" class="MuiSvgIcon-root MuiSvgIcon-fontSizeInherit appshell-fp-1cw4hi4" focusable="false" aria-hidden="true" viewBox="0 0 24 24" data-testid="UserIcon" data-di-res-id="96841b35-2747630d" data-di-rand="1702151013774" width="28"  height="28" ><path d="M15.5 7.5a3.5 3.5 0 1 1-7 0 3.5 3.5 0 0 1 7 0zm-1 0a2.5 2.5 0 1 0-5 0 2.5 2.5 0 0 0 5 0zm.948 12.248C14.34 19.972 13 20 12 20s-2.34-.028-3.448-.252c-.548-.11-1.131-.287-1.601-.595C6.452 18.825 6 18.282 6 17.5c0-2.065 2.09-4.5 6-4.5s6 2.435 6 4.5c0 .782-.452 1.325-.95 1.653-.47.308-1.054.484-1.602.595zM17 17.5c0-1.38-1.5-3.5-5-3.5s-5 2.12-5 3.5 3 1.5 5 1.5 5-.12 5-1.5z" fill="#555555"></path></svg>